<?xml version="1.0" standalone="no"?><!DOCTYPE svg PUBLIC "-//W3C//DTD SVG 1.1//EN" "http://www.w3.org/Graphics/SVG/1.1/DTD/svg11.dtd"><svg t="1652027514472" class="icon" viewBox="0 0 1024 1024" version="1.1" xmlns="http://www.w3.org/2000/svg" p-id="1635" width="200" height="200" xmlns:xlink="http://www.w3.org/1999/xlink"><defs><style type="text/css">@font-face { font-family: feedback-iconfont; src: url("//at.alicdn.com/t/font_1031158_u69w8yhxdu.woff2?t=1630033759944") format("woff2"), url("//at.alicdn.com/t/font_1031158_u69w8yhxdu.woff?t=1630033759944") format("woff"), url("//at.alicdn.com/t/font_1031158_u69w8yhxdu.ttf?t=1630033759944") format("truetype"); }
</style></defs><path d="M810.666667 213.333333a42.666667 42.666667 0 0 1 42.666666 42.666667v512a42.666667 42.666667 0 0 1-42.666666 42.666667H213.333333a42.666667 42.666667 0 0 1-42.666666-42.666667V256a42.666667 42.666667 0 0 1 42.666666-42.666667h597.333334z m0 42.666667H213.333333v512h597.333334V256z m-106.666667 362.666667a21.333333 21.333333 0 1 1 0 42.666666h-170.666667a21.333333 21.333333 0 1 1 0-42.666666h170.666667zM304.896 376.064a21.333333 21.333333 0 0 1 30.208 0l120.661333 120.661333a21.333333 21.333333 0 0 1 0 30.165334l-120.661333 120.704a21.333333 21.333333 0 1 1-30.208-30.208l105.6-105.557334L304.896 406.186667a21.333333 21.333333 0 0 1 0-30.165334z" fill="#000000" p-id="1636"></path></svg>