<?xml version="1.0" standalone="no"?><!DOCTYPE svg PUBLIC "-//W3C//DTD SVG 1.1//EN" "http://www.w3.org/Graphics/SVG/1.1/DTD/svg11.dtd"><svg t="1643150784842" class="icon" viewBox="0 0 1024 1024" version="1.1" xmlns="http://www.w3.org/2000/svg" p-id="2347" width="200" height="200" xmlns:xlink="http://www.w3.org/1999/xlink"><defs><style type="text/css"></style></defs><path d="M 565.3 88.4 c 0.3 -4.2 -0.9 -8 -3.8 -11.2 c -2.8 -3.3 -6.3 -5.1 -10.6 -5.4 c -4.2 -0.3 -8 1 -11.3 3.9 c -37.3 32.5 -47.8 64.8 -31.4 97.1 c 2.9 6.2 6.8 12.5 11.8 18.7 c 19.2 23.9 20.7 46 4.3 66.3 c -2.8 3.3 -4 7.1 -3.6 11.4 c 0.3 4.2 2.2 7.7 5.5 10.5 c 3.2 2.7 7.1 4 11.3 3.6 c 4.3 -0.4 7.8 -2.2 10.5 -5.5 c 28.1 -32.4 26.9 -67.6 -3.7 -105.7 v -0.1 c -3.4 -4.1 -6 -8.2 -8 -12.4 c -7.9 -19.7 0 -39.8 23.7 -60.5 c 3.3 -2.8 5 -6.4 5.3 -10.7 Z m -170.3 54 c 0.3 -4.2 -0.9 -8.1 -3.7 -11.3 c -2.8 -3.3 -6.4 -5 -10.6 -5.3 c -4.3 -0.3 -8.1 1 -11.4 3.8 c -10.7 9.3 -19.1 18.7 -25.1 28.1 c -19.5 29.6 -17.7 58.8 5.6 87.8 c 19.2 23.8 20.6 45.9 4.2 66.3 c -2.7 3.2 -3.9 7 -3.5 11.3 c 0.3 4.2 2.2 7.8 5.4 10.6 c 3.3 2.7 7.1 3.9 11.4 3.6 c 4.2 -0.4 7.7 -2.3 10.5 -5.5 c 28 -32.4 26.7 -67.6 -3.8 -105.8 c -13.7 -17 -14.9 -34.1 -3.8 -51.3 c 4.7 -7.2 11.3 -14.4 19.6 -21.6 c 3.2 -2.8 5 -6.4 5.2 -10.7 Z m 89.8 55.1 c -2.9 -3.2 -6.4 -5 -10.6 -5.3 c -4.3 -0.4 -8.1 0.9 -11.4 3.7 c -44.8 39.1 -51.4 77.7 -19.6 115.9 c 19.2 23.9 20.6 46 4.3 66.4 c -2.7 3.2 -4 7 -3.6 11.2 c 0.1 1.9 0.6 3.5 1.3 5 c 0.8 2.1 2.3 4 4.1 5.6 c 3.3 2.8 7.1 3.9 11.4 3.6 c 4.3 -0.3 7.8 -2.2 10.6 -5.4 c 1 -1.3 2 -2.5 3 -3.8 c 24.9 -31.4 22.5 -65.4 -6.9 -102.1 v 0.1 c -17.9 -23.9 -12.7 -48.2 15.8 -73 c 3.3 -2.8 5 -6.4 5.3 -10.6 c 0.3 -4.3 -1 -8 -3.7 -11.3 Z M 205.6 458.8 c -40.5 16.5 -69.1 35.1 -85.6 55.8 c -13 15.8 -19.6 32.6 -19.9 50.5 v 5.6 c 0.3 37.9 6 73.6 17.1 107.2 c 16.3 48.9 44 93.1 83.3 132.5 v 0.1 c 3 2.9 5.9 5.7 8.8 8.6 c 8.1 33.2 30.8 62.3 68.2 87.2 c 18.8 12.5 39.2 22.4 61.2 29.8 c 31.5 10.7 66.3 16.1 104.5 16.1 s 73.1 -5.4 104.6 -16.1 h 0.1 c 21.8 -7.4 42.1 -17.3 60.9 -29.8 c 37.5 -24.9 60.2 -54.1 68.3 -87.3 c 2.9 -2.8 5.8 -5.6 8.7 -8.5 c 2.1 -2.1 4.2 -4.3 6.3 -6.4 c 18.9 13 41.4 19.5 67.7 19.5 c 38.2 0.1 73.2 -14.1 104.9 -42.6 c 31.3 -28.3 50.3 -62.3 56.8 -102.3 c 6.9 -41.2 -1.1 -76.3 -24.1 -105.3 c -23 -29.7 -54.4 -44.7 -94 -44.7 c -8.7 0 -17.3 0.7 -25.7 2.2 c -13.9 -27.5 -46.2 -51.5 -97 -72.1 c -65.5 -26.8 -144.7 -40.2 -237.5 -40.2 c -7 0 -14 0.1 -21 0.2 c -51.9 1.2 -99.2 6.8 -142.2 16.7 c -26.5 6.1 -51.3 13.8 -74.4 23.3 Z m 11.7 28.8 c 21.7 -8.8 44.9 -16.1 69.7 -21.8 c 41 -9.5 86.3 -14.8 135.8 -15.9 h 0.1 c 6.7 -0.1 13.4 -0.2 20.3 -0.2 c 88.2 0 163.5 12.6 225.8 37.9 c 47.3 19.1 75.3 41.1 84.2 65.9 c 0 0 0 0.1 0.1 0.2 c 0.1 0.7 0.4 1.5 0.6 2.3 v 0.1 c 0.8 3.3 1.3 6.5 1.4 9.8 v 2.6 c -0.1 3.4 -0.6 6.7 -1.4 9.9 v 0.1 c -1.1 4.4 -3 8.8 -5.4 13 l -0.1 0.2 c -1.5 2.3 -3 4.6 -4.7 6.8 c -0.5 0.7 -1.1 1.4 -1.7 2 c -14.2 17 -38.6 32.5 -73 46.4 c -26.2 10.7 -54.8 19.1 -85.6 25.3 c -42.5 8.4 -89.1 12.6 -140.2 12.6 c -6.9 0 -13.7 -0.1 -20.4 -0.2 c -43.1 -0.9 -83.1 -5.1 -119.8 -12.4 c -5.5 -1.1 -10.8 -2.3 -16 -3.5 c -24.8 -5.7 -48 -13 -69.7 -21.8 c -34.3 -13.9 -58.7 -29.4 -73.1 -46.5 c -0.1 0 -0.1 -0.1 -0.2 -0.2 c -0.5 -0.5 -1 -1.2 -1.5 -1.8 c -7.1 -9.4 -10.9 -19.4 -11.3 -29.9 v -2.6 c 0.4 -11.2 4.7 -21.7 12.8 -31.6 c 14.5 -17.1 38.9 -32.8 73.3 -46.7 Z M 146.7 668 c -0.4 -1.3 -0.9 -2.6 -1.2 -3.9 c -2.7 -8.4 -5 -16.9 -6.9 -25.7 c 16.6 13.5 38.9 26 67.1 37.3 h -0.1 c 23.1 9.4 47.9 17.2 74.4 23.3 c 5.5 1.3 11.2 2.4 17 3.6 c 38.3 7.6 80 12 125.2 13.1 c 7 0.1 14 0.2 21 0.2 c 53.3 0 102.1 -4.5 146.3 -13.2 c 32.9 -6.7 63.3 -15.6 91.2 -27 c 28.1 -11.3 50.4 -23.7 67.1 -37.2 c -1.9 8.7 -4.2 17.1 -6.8 25.4 c -0.1 0.6 -0.3 1.3 -0.6 1.9 c -7.4 23 -17.6 44.8 -30.6 65.4 l -0.3 0.5 c -8.8 14.1 -19 27.7 -30.5 40.7 l -0.6 0.7 c -4.6 5.3 -9.5 10.4 -14.5 15.4 c -4 4 -8 7.7 -12 11.5 c -58.5 53.5 -128.1 80.2 -208.7 80.2 c -6.7 0 -13.3 -0.2 -19.9 -0.5 c -48.1 -2.7 -92.2 -15.4 -132.1 -38.1 c -16.5 -9.5 -32.4 -20.6 -47.5 -33.4 c -3.1 -2.7 -6.1 -5.4 -9.2 -8.2 c -4.1 -3.7 -8 -7.5 -12 -11.5 c -35.8 -35.8 -61 -76 -75.8 -120.5 Z m 726.2 -75.6 c 15 19.5 21.5 42.5 19.5 68.8 c -0.3 4.1 -0.8 8.2 -1.5 12.4 c -5.5 32.9 -21.1 61 -47 84.3 c -25.5 23 -53.5 34.5 -84.1 34.6 c -14.9 0 -28.4 -2.8 -40.1 -8.5 c -2.3 -1.1 -4.6 -2.3 -6.8 -3.6 c 5 -6.3 9.8 -12.7 14.4 -19.2 c 10.2 5 21.9 7.5 35 7.5 c 24.5 0.2 46.9 -8.9 67.1 -27.2 c 19.9 -17.8 32 -39.5 36.1 -64.9 c 0.5 -3.1 0.9 -6.2 1.2 -9.1 c 1.9 -22.7 -3.8 -42.3 -16.9 -59 c -15.1 -19.3 -35.5 -29.1 -61.3 -29.1 h -2.3 c 0 -1.9 0.1 -3.8 0.1 -5.7 c 0.1 -1.5 0.1 -2.8 0.1 -4.3 V 565 c -0.1 -1.3 -0.1 -2.6 -0.2 -4 c 5.6 -0.8 11.4 -1.3 17.2 -1.3 c 29.3 -0.1 52.5 10.8 69.5 32.7 Z m -89 18.1 c 1.5 -0.1 3 -0.1 4.6 -0.1 c 15.5 -0.1 27.8 5.6 36.7 17.2 l 0.1 0.1 c 9.2 12.1 12.4 26.7 9.6 43.8 c -3.1 18.4 -11.9 34 -26.2 46.9 l -0.1 0.1 c -14.1 12.7 -29.5 19 -46.3 19.2 c -6.7 0 -12.8 -1 -18.3 -3.2 c 21.4 -38 34.8 -79.3 39.9 -124 Z m -192.4 270 c -15.4 10.2 -32 18.5 -49.8 25 c -1.3 0.4 -2.6 0.8 -3.8 1.3 c -28.6 9.5 -60.1 14.3 -94.7 14.3 c -34.5 0 -66 -4.8 -94.6 -14.3 c -11.6 -4 -22.8 -8.7 -33.4 -14.3 c -7 -3.6 -13.9 -7.7 -20.4 -12 c -3.3 -2.3 -6.4 -4.5 -9.3 -6.6 c 41.4 21.7 86.8 34.1 136.2 36.9 c 7.1 0.3 14.3 0.5 21.5 0.5 c 57.6 0 110.1 -12.4 157.5 -37.3 c -3 2.2 -6 4.3 -9.2 6.5 Z" fill="#626161" p-id="2348"></path><path d="M 287 532.2 c -24.8 5.7 -48 12.9 -69.7 21.7 c -26.8 10.8 -47.6 22.7 -62.2 35.5 c -4.1 3.6 -7.8 7.3 -10.9 11 c 14.4 17.1 38.8 32.6 73.1 46.5 c 21.7 8.8 44.9 16.1 69.7 21.8 c 5.2 1.2 10.5 2.4 16 3.5 c 36.7 7.3 76.7 11.5 119.8 12.4 c 6.7 0.1 13.5 0.2 20.4 0.2 c 51.1 0 97.7 -4.2 140.2 -12.6 c 30.8 -6.2 59.4 -14.6 85.6 -25.3 c 34.4 -13.9 58.8 -29.4 73 -46.4 c -3.1 -3.8 -6.7 -7.5 -10.9 -11.1 c -14.4 -12.7 -35.2 -24.6 -62.1 -35.5 c -62.3 -25.2 -137.6 -37.9 -225.8 -37.9 c -6.9 0 -13.6 0.1 -20.3 0.2 h -0.1 c -49.5 1.2 -94.8 6.5 -135.8 16 Z m 347.1 33.5 l -12.4 11.2 c -40.8 -14.9 -99.5 -22.6 -175.9 -23.2 l 27.9 -15.2 c 38.8 1.7 74.8 6.2 108.2 13.2 c 18.2 3.9 35.6 8.5 52.2 14 Z" fill="#eb9fab" p-id="2349"></path><path d="M 209.5 694.7 h 0.1 c -14 -5.7 -26.5 -11.5 -37.6 -17.7 c 14.7 48.5 38.6 92.2 71.7 131.2 c 15.1 12.8 31 23.9 47.5 33.4 c 39.9 22.7 84 35.4 132.1 38.1 c 6.6 0.3 13.2 0.5 19.9 0.5 c 80.6 0 150.2 -26.7 208.7 -80.2 c 4 -3.8 8 -7.5 12 -11.5 c 5 -5 9.9 -10.1 14.5 -15.4 l 0.6 -0.7 c 11.5 -13 21.7 -26.6 30.5 -40.7 l 0.3 -0.5 c 13 -20.6 23.2 -42.4 30.6 -65.4 c -15 10.2 -33.6 19.9 -55.8 28.9 c -28 11.3 -58.4 20.3 -91.2 26.9 v 0.1 c -44.3 8.7 -93.1 13.2 -146.3 13.2 c -7.1 0 -14.1 -0.2 -21.1 -0.3 c -45.1 -1.1 -86.8 -5.4 -125.2 -13.1 c -5.8 -1.1 -11.3 -2.3 -16.9 -3.5 c -26.5 -6.1 -51.3 -13.9 -74.4 -23.3 Z m 576.7 -115.3 h 2.3 c 25.8 0 46.2 9.8 61.3 29.1 c 13.1 16.7 18.8 36.3 16.9 59 c 0.3 6.9 -0.2 14.2 -1.4 21.9 c -4.3 25.3 -16.3 47 -36.1 64.9 c -20.3 18.2 -42.7 27.3 -67.2 27.2 c -13.1 0 -24.7 -2.5 -35 -7.5 c -2.3 3.4 -4.8 6.7 -7.3 10 c 11.7 5.7 25.2 8.5 40.1 8.5 c 30.6 -0.1 58.6 -11.6 84.1 -34.6 c 25.9 -23.3 41.5 -51.4 47 -84.3 c 0.7 -4.2 1.2 -8.3 1.5 -12.4 c -0.6 -21 -7.2 -39.8 -19.7 -56 h -0.1 c -17 -22 -40.2 -32.8 -69.4 -32.8 c -5.8 0 -11.3 0.5 -16.9 1.3 c 0 1.9 -0.1 3.8 -0.1 5.7 Z M 537.9 906.8 c 1.2 -0.5 2.5 -0.9 3.8 -1.3 c -29.9 8.2 -61.4 12.3 -94.6 12.3 c -7.3 0 -14.4 -0.2 -21.6 -0.5 c -39.2 -2.3 -76 -10.5 -110.3 -24.8 c 10.6 5.6 21.8 10.3 33.4 14.3 c 28.6 9.5 60.1 14.3 94.6 14.3 c 34.6 0 66.1 -4.8 94.7 -14.3 Z" fill="#979fcf" p-id="2350"></path></svg>