<svg xmlns="http://www.w3.org/2000/svg" data-name="Layer 1" width="833.72323" height="554" viewBox="0 0 833.72323 554" xmlns:xlink="http://www.w3.org/1999/xlink"><circle cx="512.40108" cy="148.87008" r="36" fill="#f2f2f2"/><circle cx="298.40108" cy="82.87008" r="30" fill="#f2f2f2"/><circle cx="200.40108" cy="366.87008" r="30" fill="#f2f2f2"/><path d="M353.04731,585.87008c8.69,10.3,18.09,84.55568,28.12,93.53566l470.58,1c10.03-8.98,19.43-83.23561,28.12-93.53566Z" transform="translate(-183.13838 -173)" fill="#e6e6e6"/><path d="M499.73731,498.64573v102.56h71.85v-102.56a3.448,3.448,0,0,0-2.43-3.3,3.17484,3.17484,0,0,0-1.03-.16h-64.92A3.46328,3.46328,0,0,0,499.73731,498.64573Zm28.04,35.24a7.67034,7.67034,0,0,1,15.34,0v11.9a7.6701,7.6701,0,0,1-15.34,0Z" transform="translate(-183.13838 -173)" fill="#3f3d56"/><path d="M386.70728,344.12577v187.26a9.00714,9.00714,0,0,0,9,9h277.5a9.0071,9.0071,0,0,0,9-9V344.12577a9.01147,9.01147,0,0,0-9-8.99h-277.5A9.01151,9.01151,0,0,0,386.70728,344.12577Z" transform="translate(-183.13838 -173)" fill="#3f3d56"/><path d="M393.21729,346.45573v182.62a4.81834,4.81834,0,0,0,4.81,4.81h272.87a4.81829,4.81829,0,0,0,4.81-4.81v-182.62a4.82046,4.82046,0,0,0-4.81-4.82h-272.87A4.82051,4.82051,0,0,0,393.21729,346.45573Z" transform="translate(-183.13838 -173)" fill="#6c63ff"/><path d="M448.85731,612.08573a2.94839,2.94839,0,0,0,2.32,1.11h162.34a2.98724,2.98724,0,0,0,2.92-3.6l-2.52-11.97a2.99262,2.99262,0,0,0-1.86-2.17,2.8945,2.8945,0,0,0-1.06-.2h-157.31a2.89421,2.89421,0,0,0-1.06.2,2.99237,2.99237,0,0,0-1.86,2.17l-2.52,11.97A2.98494,2.98494,0,0,0,448.85731,612.08573Z" transform="translate(-183.13838 -173)" fill="#3f3d56"/><path d="M406.80061,366.79245H662.124a1.01559,1.01559,0,0,0,0-2.03069H406.80061a1.01559,1.01559,0,0,0,0,2.03069Z" transform="translate(-183.13838 -173)" fill="#3f3d56"/><ellipse cx="461.60539" cy="180.49456" rx="5.95043" ry="6.08304" fill="#3f3d56"/><ellipse cx="441.04937" cy="180.49456" rx="5.95043" ry="6.08304" fill="#3f3d56"/><ellipse cx="420.49335" cy="180.49456" rx="5.95043" ry="6.08304" fill="#3f3d56"/><path d="M418.08872,350.02573a1.0948,1.0948,0,0,0,1.09,1.1h14.6a1.1053,1.1053,0,0,0,0-2.21h-14.6A1.1034,1.1034,0,0,0,418.08872,350.02573Z" transform="translate(-183.13838 -173)" fill="#3f3d56"/><path d="M418.08872,354.17576a1.09474,1.09474,0,0,0,1.09,1.1h14.6a1.10527,1.10527,0,0,0,0-2.21h-14.6A1.1034,1.1034,0,0,0,418.08872,354.17576Z" transform="translate(-183.13838 -173)" fill="#3f3d56"/><path d="M418.08872,358.31577a1.1034,1.1034,0,0,0,1.09,1.11h14.6a1.1053,1.1053,0,0,0,0-2.21h-14.6A1.09476,1.09476,0,0,0,418.08872,358.31577Z" transform="translate(-183.13838 -173)" fill="#3f3d56"/><path d="M979.08138,565.19645c-.02-.05-.03-.09-.04992-.12994a26.64089,26.64089,0,0,0-1.3501-3.04c-2.90991-5.47.17-13.87-3.11-23.15-5.29992-15.04-11.76-23.91-21.23-31.86-.28-.24-.55993-.47-.85-.71l-.01-.01c-6.32007-5.19-13.93995-10.04-23.4-16.08-1.97009-1.26-8.78,2.38-8.62-3.86.17993-6.93.37-14.11-3.03-18.59l-.22-.29-.3501-.09a150.43743,150.43743,0,0,0-35.41992-2.73h-.01a69.6588,69.6588,0,0,0-14.92993,2.19c-.36011.1-.72.2-1.07007.32-.27.07-.54.16-.81006.25l-.22.08-.16992.16c-3.29,3.29-4.05,9.19-4.41,15.34v.00995q-.10491,1.68008-.18005,3.36c-.28,5.98-14.71,10.81-20.21,13.52-10.33,5.1-8.7719,16.98363-8.89189,16.98363,0,0-17.36812,35.65639-17.57808,71.76637q-.015,3.015-.04,6.06c-.12,16.82-.43994,33.93-1.69995,49.52-.55005,6.7-1.26,13.11-2.21,19.1-4.62012,29.17-25.55,4.95-35.56006,24.36a24.5262,24.5262,0,0,0,1.65,5.55c1.15.68,2.33,1.34,3.5,2q7.78509,4.335,15.86,8.09c.3.13995.6.28.8999.41a236.7353,236.7353,0,0,0,30.46008,11.62c2.03.62,4.05994,1.21,6.11,1.77a233.5856,233.5856,0,0,0,55.6101,8.33,1.70141,1.70141,0,0,1,.23-.01,288.58529,288.58529,0,0,0,65.83984-9.49q.45007-.11994.90015-.24c1.40991-.38,2.80993-.76,4.21-1.16a287.28148,287.28148,0,0,0,36.3-13.02,9.23463,9.23463,0,0,0,.12988,1.31,3.02982,3.02982,0,0,0,.06006.42c.02-.16.04-.31995.05-.48.05993-.47.10986-.95.15991-1.43C1001.54146,641.66648,988.83138,590.9965,979.08138,565.19645Z" transform="translate(-183.13838 -173)" fill="#ccc"/><circle cx="707.419" cy="228.40308" r="58.07076" fill="#ffb6b6"/><path d="M894.85623,460.5196a157.9333,157.9333,0,0,0,26.01194-6.98013c8.30263-3.44213,24.88172-21.3821,28.6117-30.9607h0c2.77113-7.11675,3.40495-17.51058,3.4491-24.97628A70.60055,70.60055,0,0,0,930.09206,344.95a22.3052,22.3052,0,0,0-10.31326-5.82477c-.34089-.06216-.68825-.10843-1.036-.1381A27.5203,27.5203,0,0,1,903.6857,333.29a22.698,22.698,0,0,0-2.68166-1.86382,33.89924,33.89924,0,0,0-15.24011-4.26625c-8.68255-.601-20.19832,3.91785-34.22551,13.43724-7.04727,4.78267-15.68595,5.23152-22.42668,5.08849a2.15593,2.15593,0,0,0-1.85941,1.07075,15.21965,15.21965,0,0,1-9.36473,6.02519c-2.29192.55183-4.09369,4.22507-6.21214,8.97007-.4806,1.07705-1.0414,2.33406-1.47024,3.11569l-.32688-1.27751-1.02662,1.6962a18.46867,18.46867,0,0,0,13.93768,27.93972,36.01873,36.01873,0,0,0,7.331-.252c1.48072-.15257,3.01238-.31038,4.50363-.34111a27.84478,27.84478,0,0,1,23.76489,13.77935,7.28194,7.28194,0,0,0,11.46417,1.36853,12.03134,12.03134,0,0,1,10.37908-4.05576,7.987,7.987,0,0,1,4.23086,3.2555,10.40825,10.40825,0,0,0,4.75774,3.76763c6.44684,1.87923,9.45727,15.18138,9.52617,26.74581.0664,11.14708-2.42762,19.70621-6.0648,20.81384-2.80015.85233-3.08737,1.119-3.19583,1.66471l-.09668.48844.40347.36069A11.89232,11.89232,0,0,0,894.85623,460.5196Z" transform="translate(-183.13838 -173)" fill="#2f2e41"/><ellipse cx="506.19089" cy="460.63091" rx="20.13233" ry="6.42521" fill="#3f3d56"/><ellipse cx="506.19089" cy="456.34743" rx="20.13233" ry="6.42521" fill="#3f3d56"/><path d="M685.78964,633.65318l3-.04492L687.962,577.5897a52.25789,52.25789,0,0,1,25.36914-45.5l57.25927-34.22607-1.53906-2.5752-57.25928,34.22705A55.26516,55.26516,0,0,0,684.962,577.63463Z" transform="translate(-183.13838 -173)" fill="#3f3d56"/><rect x="761.82211" y="463.1486" width="14.56381" height="59.96865" rx="7.2819" transform="translate(1355.06966 813.26586) rotate(180)" fill="#6c63ff"/><path d="M673.87529,557.55265A17.32415,17.32415,0,0,0,698.01862,568.633l43.18295,43.87921,6.68173-31.28645-42.03164-36.87189a17.418,17.418,0,0,0-31.97637,13.19882Z" transform="translate(-183.13838 -173)" fill="#ffb6b6"/><path d="M899.43955,511.73518l-.27425-.15294-31.48653-10.82791a29.80746,29.80746,0,0,0-24.41384,2.26726,29.215,29.215,0,0,0-4.79107,3.38773l-.00985.0014a29.80359,29.80359,0,0,0-9.67833,16.40478l-16.53812,78.5176L778.99575,583.413l-13.55-3.23585-12.33406-12.37792-30.80081-12.54146-1.70986,2.04088-15.498,18.52458-1.21727,1.45576L738.01083,626.649l15.29635,1.66454,4.28506,7.623.30257.13881,12.53988,5.652,53.48184,24.09545,25.899-19.82077,4.05263-3.11111c33.50593-31.04262,49.16851-56.01446,55.70776-75.03365,3.461-10.0468,4.37231-18.41831,4.02941-25.16717C912.5404,521.83251,899.971,512.13442,899.43955,511.73518Z" transform="translate(-183.13838 -173)" fill="#ccc"/><path d="M929.03953,530.87008H914.0394A78.4999,78.4999,0,0,0,835.53947,609.37c-13.99274,17.30432-13.13587,39.033,0,64.4201L792.544,655.86532a12,12,0,0,0-9.23511,22.152l52.2306,21.77484v4.05426a23.02364,23.02364,0,0,0,23.02362,23.02362H984.51584a23.02365,23.02365,0,0,0,23.02363-23.02362c9.33764-34.25751,15.18243-67.48053,0-94.4765A78.4999,78.4999,0,0,0,929.03953,530.87008Z" transform="translate(-183.13838 -173)" fill="#3f3d56"/><circle cx="386.40108" cy="287.87008" r="4" fill="#f2f2f2"/><circle cx="400.40108" cy="287.87008" r="4" fill="#f2f2f2"/><circle cx="414.40108" cy="287.87008" r="4" fill="#f2f2f2"/><path d="M468.7996,418.90529l29.85727.445a1.5009,1.5009,0,0,0,0-3l-29.85727-.445a1.5009,1.5009,0,0,0,0,3Z" transform="translate(-183.13838 -173)" fill="#fff"/><path d="M504.77151,450.30111c3.53341,2.727,9.21258.34094,10.1986-3.87156,1.149-4.90862-3.13824-9.5287-8.0035-9.42215-5.41126.11849-9.23606,4.66992-9.82192,9.79186a14.23,14.23,0,0,0,5.13561,12.3751,15.57426,15.57426,0,0,0,14.25747,3.33052c1.84776-.54472,1.06123-3.4408-.79751-2.89283a12.71726,12.71726,0,0,1-15.33414-8.58909c-.94142-3.53844-.05217-7.95711,3.24565-9.98165,2.96423-1.81975,7.16085-1.159,8.29094,2.48661a3.68282,3.68282,0,0,1-5.657,4.18278,1.5098,1.5098,0,0,0-2.05229.53813,1.53663,1.53663,0,0,0,.53813,2.05228Z" transform="translate(-183.13838 -173)" fill="#fff"/><path d="M535.3798,436.76284a74.18541,74.18541,0,0,0-8.05762,10.87555l-3.50555-9.26642c-.67664-1.78857-3.57788-1.01318-2.89289.79755q2.235,5.9078,4.47,11.81567a74.68357,74.68357,0,0,0-4.43878,9.85944c-.66351,1.81622,2.23462,2.59924,2.89289.79748a69.89936,69.89936,0,0,1,2.967-6.90045q2.04749,5.41213,4.09491,10.82434c.67663,1.78858,3.57782,1.01319,2.89282-.79754q-2.562-6.77235-5.124-13.54462a70.5674,70.5674,0,0,1,8.82258-12.33966C538.78489,437.449,536.67026,435.32021,535.3798,436.76284Z" transform="translate(-183.13838 -173)" fill="#fff"/><path d="M482.10738,417.43966l2.0976,44.96669c.08967,1.92229,3.09018,1.93324,3,0l-2.0976-44.96669c-.08967-1.92229-3.09018-1.93324-3,0Z" transform="translate(-183.13838 -173)" fill="#fff"/><path d="M556.10642,440.87008H548.55c-.01892-1.51837-.039-3.0362-.06958-4.55213-.03888-1.92785-3.03906-1.93444-3,0q.04587,2.2761.0918,4.55213h-6.47363a1.5009,1.5009,0,0,0,0,3h6.53412q.01931.95654.03857,1.91315a77.35005,77.35005,0,0,0,.37909,8.84c.64038,4.7154,3.83649,10.074,9.297,9.61115,1.9096-.16187,1.92682-3.16327,0-3-4.92786.41766-6.34265-5.37274-6.528-9.16406-.13342-2.72852-.19061-5.46418-.23016-8.20026h7.51727A1.5009,1.5009,0,0,0,556.10642,440.87008Z" transform="translate(-183.13838 -173)" fill="#f2f2f2"/><path d="M261.80984,580.59056a16.22392,16.22392,0,0,0-2.89731.27326L243.011,480.19794l15.93043-96.9105a24.40813,24.40813,0,0,0-47.382-11.23961v.0001a192.56309,192.56309,0,0,0-8.75909,59.05426l.5556,66.09076L245.7482,598.69478a16.181,16.181,0,1,0,16.06164-18.10422Z" transform="translate(-183.13838 -173)" fill="#ffb8b8"/><path d="M232.68725,348.80957A38.45439,38.45439,0,0,0,194.2973,387.2002l7.8,78.7998.7,7.05957.36.02051,27.39,1.36035h.01l13.29.65918,2.28.11035L248.7373,466l22.34-78.7998A38.43189,38.43189,0,0,0,232.68725,348.80957Z" transform="translate(-183.13838 -173)" fill="#e6e6e6"/><path d="M233.86731,727l-12.6-38.66016s-23.1-23.49023,6.53-85.84961c.65-1.37988,1.32995-2.7705,2.04-4.19043q1.86-3.73535,3.98-7.66015c2.14-3.79981,4.31-7.72949,6.76-11.79l2.24.40039,2.12.37012,7.25,1.28027h.01l104.99,18.5s-1.93,8.61914-2.97,17.86914c-.83,7.59082-1.1,15.27051.86,18.52051,4.24,7.25976-1.49,26.87988-1.49,26.87988s.32,1.90039.86,5.25977v.01074c.53,3.26953,1.27,7.90918,2.11,13.5293q.06.56982.15,1.14062c1.33,9.09961,2.92,20.58985,4.34,32.93945.44,3.75.86,7.58008,1.26,11.4502Z" transform="translate(-183.13838 -173)" fill="#2f2e41"/><path d="M203.94179,369.19289a22.68348,22.68348,0,0,1,16.34147-14.397,50.91955,50.91955,0,0,1,16.943-1.85182c16.72009.65862,12.50423-36.79981,29.06044-34.37441,0,0,15.583-5.56127,27.77564,4.62927,11.07634,9.25755,18.712,34.43608,21.55459,33.00368.60412-.29858,2.055-.267,4.08514.00246,23.72347,3.14867,40.795,24.43,39.38527,48.32l-1.20512,20.42219s8.5177,12.82289-3.84238,35.46011L338.46728,530s38.96132,77.168,21,93-88.38393-8.85438-88.38393-8.85438-39.4916-12.20812-47.82048-17.49914c-17.59323-11.17675,4.89252-36.66113,18.79485-35.46a8.10176,8.10176,0,0,0-2.546-8.101c-3.84238-2.45365.46281-8.00884.78689-8.518-.37042.37014-3.28688,3.42562-5.50884-3.00914s4.62927-14.536,4.62927-14.536l-19.35033-41.66346-15.23021-32.91407-1.85182-3.796,3.17682-20.4793-.29725-.615a65.58069,65.58069,0,0,1-4.22379-45.30395C203.10944,376.68988,204.16528,371.62277,203.94179,369.19289Z" transform="translate(-183.13838 -173)" fill="#e6e6e6"/><path d="M362.30731,727h-6.68006c1.85-3.96973,3.68006-7.82031,5.42005-11.4502C361.4873,719.2998,361.90728,723.12988,362.30731,727Z" transform="translate(-183.13838 -173)" fill="#2f2e41"/><path d="M493.42869,494.054a16.22465,16.22465,0,0,0-1.55776,2.45814L402.541,447.45455l-66.87217-71.92731A24.40813,24.40813,0,0,0,297.77332,406.11l.00008.00006a192.56287,192.56287,0,0,0,41.33048,43.08037l52.59683,40.02338,106.20923,28.6237a16.181,16.181,0,1,0-4.48125-23.78355Z" transform="translate(-183.13838 -173)" fill="#ffb8b8"/><path d="M372.51269,474.60932l26.51815-30.933,1.47706-1.72961L346.19038,368.336a37.44921,37.44921,0,0,0-7.61762-4.5924l-.00717-.007A38.38332,38.38332,0,0,0,299.18543,429.03L315.038,438.971l57.23741,35.91031Z" transform="translate(-183.13838 -173)" fill="#e6e6e6"/><path d="M324.91789,284.90948a51.09433,51.09433,0,1,1,2.59625-43.52862c.23384.58474.44442,1.16949.65484,1.77765A51.02461,51.02461,0,0,1,324.91789,284.90948Z" transform="translate(-183.13838 -173)" fill="#ffb6b6"/><path d="M332.26222,243.15851c-2.19866-6.15156-1.23959-2.94715-3.46166-9.0753,1.45031,5.42648-.842,8.46714-.63158,9.0753H267.33175V207.793c17.82326-7.06381,35.24864-13.075,45.77411,0a35.36708,35.36708,0,0,1,35.36557,35.36556Z" transform="translate(-183.13838 -173)" fill="#2f2e41"/><path d="M310.69677,341.46632c-.04682-.65485-.11692-1.33325-.21057-1.98809a68.87753,68.87753,0,0,0-3.9529-14.034c-1.75425-4.93524-3.5319-9.894-5.30942-14.82928a42.45662,42.45662,0,0,1-1.98823,26.94525c-10.26821-7.99932-3.789-26.29026-17.215-26.29026-32.27808,0-65.49181-26.17334-65.49181-58.47483,0-32.27822,13.8468-56.4165,46.12488-56.4165,32.30163,0,58.49838,14.78231,59.12981,47.06053C282.0207,252.79515,318.20485,338.19181,310.69677,341.46632Z" transform="translate(-183.13838 -173)" fill="#2f2e41"/><circle cx="37.42389" cy="37.42389" r="37.42389" fill="#2f2e41"/></svg>