<svg xmlns="http://www.w3.org/2000/svg" width="851.034" height="527.71012" viewBox="0 0 851.034 527.71012" xmlns:xlink="http://www.w3.org/1999/xlink"><g><polygon points="697.47755 504.63692 688.62985 502.56229 693.98085 461.78275 707.03805 464.84351 697.47755 504.63692" fill="#ffb6b6"/><path d="M662.54575,515.15376h0c-.38553,1.48556,.35618,2.96347,1.65667,3.30097l17.45504,4.52987s3.50962-6.459,11.28418-7.61301l-2.0797,10.00172,9.00444,2.3368,3.0303-16.16374s4.61363-7.87107,.73829-13.51229c-3.8754-5.64123,.01953-3.98514,.01953-3.98514l.58288-10.3396-14.02192-1.9311-4.10415,15.40311-10.57766,13.60114-10.92696,2.27089c-.97255,.20211-1.78239,1.02754-2.0608,2.10037h-.00012Z" fill="#2f2e41"/></g><g><polygon points="782.29697 495.01501 774.22736 499.19441 751.76584 464.74032 763.67415 458.57179 782.29697 495.01501" fill="#ffb6b6"/><path d="M762.60596,525.72494h0c.67349,1.37911,2.19817,2.01917,3.40547,1.42959l16.20422-7.91335s-1.5357-7.18872,3.6187-13.12233l4.9262,8.94942,8.35919-4.08222-8.21238-14.24802s-1.61567-8.97937-8.22856-10.74327c-6.61294-1.76388-2.57738-3.03955-2.57738-3.03955l-6.28286-8.23241-11.90624,7.65408,6.90199,14.36879,.81302,17.21096-6.82225,8.83246c-.60722,.78612-.6854,1.93984-.19902,2.93579l-.00009,.00007Z" fill="#2f2e41"/></g><path id="b-58" d="M309.04719,343.55293h234.52262c2.95262,0,5.34619-2.39357,5.34619-5.34619V6.34613c0-2.95262-2.39357-5.34619-5.34619-5.34619h-234.52262c-2.95262,0-5.34619,2.39357-5.34619,5.34619V338.20674c0,2.95262,2.39357,5.34619,5.34619,5.34619Z" fill="#fff"/><path d="M549.9159,344.55322h-247.21484V0h247.21484V344.55322Zm-245.21484-2h243.21484V2h-243.21484V342.55322Z" fill="#e6e6e6"/><path id="c-59" d="M494.35899,55.19594c.9516,0,1.72302,.77139,1.72302,1.72299h0v3.44601c0,.9516-.77142,1.72299-1.72302,1.72299h-136.10001c-.95157,0-1.72299-.77142-1.72299-1.72299v-3.44601c0-.95157,.77142-1.72299,1.72299-1.72299h136.10001" fill="#e6e6e6"/><path id="d-60" d="M494.35899,71.56193c.9516,0,1.72302,.77139,1.72302,1.72299h0v3.44601c0,.9516-.77142,1.72299-1.72302,1.72299h-136.10001c-.95157,0-1.72299-.77142-1.72299-1.72299v-3.44601c0-.95157,.77142-1.72299,1.72299-1.72299h136.10001" fill="#e6e6e6"/><path id="e-61" d="M494.35899,87.92894c.9516,0,1.72302,.77139,1.72302,1.72299h0v3.44601c0,.9516-.77142,1.72299-1.72302,1.72299h-136.10001c-.95157,0-1.72299-.77142-1.72299-1.72299v-3.44501c0-.95157,.77142-1.72299,1.72299-1.72299h136.10001" fill="#6c63ff"/><path id="f-62" d="M744.8664,130.86708h45.20876c-.06635-2.12411,.385-4.23247,1.31509-6.14327,.02618,2.12043,.4923,4.21233,1.36886,6.14327h2.05331c3.14093-.00323,5.68636-2.54866,5.68959-5.68959v-29.37783c-.00167-14.38395-12.29998-35.94663-25.66332-26.92364-.43119-.02249-7.20546-3.02298-7.63666-3.02298-11.75647,.00953-15.79918,10.61875-19.34955,21.82632-4.04556-1.86421-6.83259,5.91735-8.84911,19.61378-.58847,3.99691-1.11131,8.49753-1.58067,13.40914-1.29601,4.12104,.99411,8.51242,5.11515,9.80844,.75448,.23727,1.54057,.35875,2.33148,.36028l-.00292-.00391Z" fill="#2f2e41"/><path id="g-63" d="M656.15215,298.82109c-2.24102,5.31315-1.31703,10.77591,2.06405,12.20247s7.93843-1.72478,10.17949-7.03989c.92459-2.11089,1.33028-4.41252,1.18308-6.71232l9.21345-22.63225-10.71235-4.09779-7.94921,22.74759c-1.74966,1.49947-3.11485,3.39609-3.98144,5.53121l.00292,.00098Z" fill="#ffb6b6"/><path id="h-64" d="M755.20818,120.92324l21.60854,4.52019-3.31461,9.94286,6.62922,76.04931-11.04774,24.48707-67.3932-5.52435,16.57209-33.14611s-6.62922-27.61981,2.20974-33.14611c8.83896-5.5263,23.20131-33.14612,23.20131-33.14612l11.53466-10.03674Z" fill="#6c63ff"/><path id="i-65" d="M775.35105,129.8414l19.14359,7.75072-6.62922,97.22273,14.36233,83.96527-46.40163,7.7341s5.52435-185.60749,8.83799-188.9221,10.68694-7.7556,10.68694-7.7556v.00489Z" fill="#2f2e41"/><path id="j-66" d="M737.85879,141.96662s-12.45572-7.88076-19.18565-2.04548-58.54249,146.89009-58.54249,146.89009l13.97514,6.07189,32.05102-67.20156,31.70197-83.71494Z" fill="#2f2e41"/><path id="k-67" d="M702.17636,379.62722l-12.63659,97.14449,17.67695,1.10488s9.19095-25.07958,19.67647-54.62168c2.23223-6.26453,4.51824-12.72752,6.78371-19.20128,2.45222-7.0262,4.89467-14.05335,7.21393-20.8361,5.73359-16.72656,10.76124-31.9513,13.63292-41.89413,.4967-1.74531,.93866-3.32438,1.30335-4.71771,7.72922-29.69754,12.15164-107.3054,12.15164-107.3054l-64.07859-5.52435-.68443,.85065-13.67595,17.09127,.64043,3.61284,17.03651,95.55468-5.03742,38.74577-.00294-.00391Z" fill="#2f2e41"/><path id="l-68" d="M707.21378,340.8844l-5.03742,38.74577,22.65963,39.89266,2.05331,3.73407,31.19939,56.69844,15.41244-8.73922s-20.05193-46.08191-32.61422-87.99854c-1.39233-4.60722-2.68494-9.17042-3.84457-13.61141-3.41435-13.00422,2.1765-36.73451-.01076-43.27573-7.39091-22.07393-31.4761-66.23356-42.6568-86.23856l-4.19851,5.23689,17.03751,95.55563Z" fill="#2f2e41"/><path id="m-69" d="M743.9522,130.12788l-22.37119,8.57399-58.5552,171.24516,35.35391,5.52435,16.57207-99.43248,29.00041-85.91101Z" fill="#2f2e41"/><path id="n-70" d="M799.89776,314.97271c.56906,5.73847,3.99122,10.09635,7.64316,9.7336,3.65194-.36275,6.15011-5.30825,5.58009-11.04869-.19625-2.29619-.93954-4.512-2.16769-6.46203l-2.71818-24.28368-11.36843,1.51846,3.88661,23.7782c-.8213,2.15404-1.11468,4.47348-.85556,6.76415Z" fill="#ffb6b6"/><path id="o-71" d="M786.75859,137.59701s14.36233-3.31461,18.78182,4.41948c4.41949,7.7341,6.62922,157.98768,6.62922,157.98768l-15.19735,1.10488-8.00298-74.01948-2.20974-89.48963-.00098-.00292Z" fill="#2f2e41"/><circle id="p" cx="768.42948" cy="95.27753" r="22.96566" fill="#ffb6b6"/><path id="q-72" d="M777.64792,130.8661h11.34185c.57624,0,1.06639-.44433,1.09326-1.01995l.00311-.06342c.06184-1.19995,1.74529-1.40182,2.13615-.26563,.15722,.45703,.33628,.90723,.53683,1.349h1.11563v-35.40591c0-6.07277-4.92295-10.99572-10.99572-10.99572h-.00002c-5.18485,0-9.66517,3.62192-10.75161,8.69166,0,0-7.70764,9.45382-3.16496,14.76889s-2.06612,9.6413-2.06612,9.6413c-1.46688,6.84501,3.75119,13.29979,10.75161,13.29979Z" fill="#2f2e41"/><path id="r-73" d="M401.61025,172.10808c2.54493-1.64133,3.08121-5.154,1.3009-7.60372l-8.33954-11.47529c-1.94767-2.68303-5.70159-3.27915-8.38462-1.33148-.23777,.17261-.46255,.36243-.67251,.56797-14.12115,7.54916-21.72217,18.57379-13.27081,31.6062-.00012,2.17641,.1586,4.34987,.47477,6.50308,.13718,.93427,.45165,1.84822,.98471,2.62766,1.583,2.31473,4.37575,3.16436,6.83338,2.36329l13.63942-4.43163c2.89783-.94155,4.46662-4.10522,3.39617-6.95795-1.38331-3.68649-.81326-8.73924,4.03815-11.86813Z" fill="#f2f2f2"/><path id="s-74" d="M433.98203,205.95802c-3.92419-.38744-7.27449,2.84647-7.27449,6.78974v11.76593c.00013,.30482,.02348,.60919,.06981,.91047,.50426,3.27863,3.57093,5.52772,6.84955,5.02345,19.11481,2.35568,32.17712-5.95657,32.96301-24.19379,.12524-.25592,.2321-.52043,.31974-.79154,1.01877-3.15132-.71001-6.53187-3.86133-7.55063l-11.41964-3.71037c-3.93971-1.28005-8.03416,1.27771-8.72368,5.36236-.62284,3.68966-3.05801,6.97344-8.92297,6.39438Z" fill="#e6e6e6"/><path id="t-75" d="M363.37904,217.46286c3.96387,23.52673,24.60693,32.45224,46.13696,33.86301,.42151,.06482,.84729,.09748,1.27374,.09769,4.64359,.00238,8.40991-3.76007,8.41229-8.40369v-19.6739c0-5.50316-4.51023-9.78906-10.01311-9.84448-5.31984-.05357-8.78676-2.57114-10.21137-7.19312-1.62732-5.27964-7.42785-8.06344-12.68214-6.35605l-17.95837,5.83559c-2.32617,.75528-4.20883,2.48499-5.15799,4.73901-.94394,2.23129-.87094,4.76275,.19998,6.93594Z" fill="#3f3d56"/><path id="u-76" d="M474.01301,136.11194c-3.31415-3.24631-8.63246-3.19129-11.87876,.12287-.28894,.29498-.55576,.61089-.79825,.94511l-15.95651,21.96295c-2.04029,2.80831-.87392,6.7208,2.315,8.09201,7.46985,3.21198,6.6848,10.42204,4.25272,14.83463-1.19174,2.16222-.20819,4.86841,2.13987,5.63137l26.88891,8.73705c4.42374,1.42821,9.16769-1.00014,10.59592-5.42387,.1438-.4454,.25018-.90204,.31808-1.36513,.46213-3.07845,.69413-6.18705,.69401-9.29999,4.54816-16.96161-1.74573-32.95099-18.57098-44.237Z" fill="#6c63ff"/><path id="v-77" d="M427.83661,161.57837c2.97941,1.67731,6.73805,.86599,8.74797-1.89996l5.34622-7.35716c1.0376-1.42668,1.39776-3.23646,.98542-4.95169-.39817-1.68384-1.51479-3.10833-3.05483-3.89709-12.57971-11.36581-27.46802-12.06339-40.09314-.05804-1.58704,.80081-2.74233,2.25822-3.15982,3.98615-.41181,1.70332-.05471,3.50155,.97666,4.91829l6.24682,8.59809c2.14548,2.95303,6.30206,3.72565,9.25872,1.58516,4.29615-3.11023,10.53702-3.29325,14.74598-.92374Z" fill="#e6e6e6"/><rect id="w" y="525.96296" width="851.034" height="1.683" fill="#e6e6e6"/><path id="x-78" d="M357.40901,309.79193c.48001-2.03201,2.73401-2.70001,4.577-2.62299,1.16434,.07855,2.31927,.26129,3.45099,.54599,1.18399,.26501,2.35699,.57901,3.52399,.91101,2.14001,.60999,4.25699,1.34799,6.43201,1.82501,1.8244,.49951,3.74573,.52774,5.58401,.082,1.76868-.48553,3.16058-1.85098,3.67999-3.60999,.52811-1.68045-.23224-3.49686-1.79999-4.29999-1.45108-.79971-3.2757-.27167-4.07541,1.17941-.01178,.02139-.02332,.04291-.03458,.06458-.67227,1.7897-.14478,3.80881,1.31699,5.04099,.74936,.70355,1.57016,1.3269,2.44901,1.85999,.89191,.60779,1.88464,1.05234,2.93201,1.31299,1.78146,.47202,3.6636-.26279,4.65399-1.81699,.19699-.37192,.31546-.7804,.34799-1.20001,.052-.57101-.84-.56799-.892,0-.14999,1.63599-2.06601,2.39999-3.5,2.22198-.96692-.16034-1.89026-.51883-2.71201-1.05301-.79337-.46246-1.5452-.99277-2.24701-1.58499-1.215-1.052-2.354-2.78201-1.53799-4.423,.6351-1.05457,2.00485-1.39462,3.05942-.75952,.14081,.08481,.27179,.18491,.39059,.29852,1.276,1.04401,1.048,2.93701,.207,4.177-1.01068,1.29443-2.57101,2.03848-4.21301,2.009-1.73148,.00299-3.45261-.26697-5.10001-.79999-2.05499-.58301-4.08899-1.23599-6.15302-1.78601-1.172-.31201-2.353-.59299-3.54599-.81201-1.1283-.24863-2.2872-.32883-3.439-.23801-1.94446,.09192-3.62671,1.38333-4.21799,3.23801-.129,.56104,.73099,.79901,.86301,.24002Z" fill="#3f3d56"/><path id="y-79" d="M392.72701,286.54093c.26901,0,.487,.771,.487,1.72299v3.44601c0,.95099-.21799,1.72299-.487,1.72299h-38.46799c-.26901,0-.487-.771-.487-1.72299v-3.44601c0-.952,.21799-1.72299,.487-1.72299h38.46799" fill="#e6e6e6"/><path id="a`-80" d="M495.595,286.54093c.26901,0,.487,.771,.487,1.72299v3.44601c0,.95099-.21799,1.72299-.487,1.72299h-38.46799c-.26901,0-.487-.771-.487-1.72299v-3.44601c0-.952,.21799-1.72299,.487-1.72299h38.46799" fill="#e6e6e6"/><path id="aa-81" d="M478.46697,305.95093l-7.63599,2.52399-3.81799,1.26202c-1.17261,.50067-2.44202,.73395-3.716,.68298-.94086-.06274-1.76697-.64813-2.138-1.51501-.1626-.86902,.21082-1.75098,.948-2.23901,1.82202-1.38599,4.12598,.02502,5.41803,1.46002,1.57898,1.75598,2.47302,4.02301,3.95398,5.86102,1.31824,1.64978,2.98999,2.98254,4.89203,3.90002,3.80054,1.88519,8.33447,1.49774,11.76001-1.005,4.02502-3.10498,4.43597-8.487,4.45697-13.18201-.01581-.45093-.39423-.80365-.84515-.78784-.42871,.01501-.77283,.35913-.78784,.78784-.01898,4.255-.26099,9.47101-4.14099,12.13397-3.71698,2.55103-8.59998,1.87402-12.02301-.84399-1.76404-1.57013-3.23132-3.44458-4.33197-5.534-1.22198-2-2.73901-3.93103-5.039-4.70697-2.03357-.73859-4.30609,.05554-5.43701,1.90002-.97449,1.64056-.43451,3.76044,1.20605,4.73492,.12689,.07538,.25848,.14252,.39392,.20105,2.66699,1.271,5.71802-.21802,8.28497-1.06702l9.03601-2.98602c.99298-.328,.56799-1.90601-.43402-1.57501l-.00299-.00598Z" fill="#6c63ff"/><path d="M139.14725,495.99986c-.09955-.08735-.17635-.1327-.22823-.13225-1.24578,.01087-2.35574,.6647-2.96748,1.74589l-13.41355,24.91115c-.30678,.54215-.45736,1.13526-.45219,1.72702s.16608,1.18224,.48219,1.71895c.63231,1.07342,30.25589,1.45896,30.25589,1.45896,1.24578-.01087,4.66493-15.33629-13.67662-31.42972Z" fill="#e6e6e6"/><g><polygon points="87.87977 521.39432 98.06087 521.30445 102.56129 481.9917 87.53492 482.12392 87.87977 521.39432" fill="#ffb6b6"/><path d="M122.75954,520.85887h0c.32166,.53113,.50397,2.25284,.50939,2.87371h0c.01666,1.90841-1.51688,3.46902-3.42535,3.48568l-31.52974,.27523c-1.3019,.01136-2.36658-1.03482-2.37794-2.33679l-.01146-1.31268s-1.59418-3.93168,1.57461-8.82251c0,0,4.02438,3.7728,9.93611-2.24305l1.73086-3.20131,12.81162,9.19921,7.06382,.80696c1.54542,.17653,2.91219-.05491,3.71796,1.27556h.00012Z" fill="#2f2e41"/></g><g><polygon points="126.61278 487.4534 136.28638 490.62901 153.14057 454.82841 138.86336 450.14112 126.61278 487.4534" fill="#ffb6b6"/><path d="M159.82676,498.11722h0c.13461,.60617-.2441,2.29558-.43781,2.88549h0c-.59543,1.81322-2.54801,2.80047-4.36129,2.20502l-29.95706-9.8374c-1.23697-.4062-1.91049-1.73827-1.50428-2.97529l.40956-1.24721s-.251-4.23516,4.31728-7.85348c0,0,2.60407,4.86297,10.13112,1.05738l2.66498-2.47834,9.19051,12.81786,6.43329,3.02681c1.40748,.66219,2.77638,.88068,3.11359,2.39913l.00012,.00004Z" fill="#2f2e41"/></g><polygon points="140.27182 259.50701 160.61287 324.72822 184.45933 383.34387 148.31373 467.68921 128.20204 459.85303 146.20204 386.85303 115.43255 332.3469 100.8914 495.97076 83.20204 493.85303 60.20204 297.85303 63.80919 255.23154 140.27182 259.50701" fill="#2f2e41"/><path id="ab-82" d="M119.46,111.00492l-21.978-5.305-6.06299,14.4s-29.69897,5.0171-31.21698,27.7531c0,0-5.91904,29.84489-2.13004,38.18189s13.13004,37.81811,13.13004,37.81811c0,0-14.79001,36.73-11,39s85,10.547,85,6,.927-58.57011,.927-58.57011l-3.17999-81.85-20.45703-7.575-3.03201-9.852h0v-.001Z" fill="#e6e6e6"/><circle cx="115.74037" cy="85.19547" r="22.14743" fill="#ffb6b6"/><path d="M101.07518,88.48765c1.76766,.96691,.09245,5.58681,1.19716,5.98579,1.27693,.46118,5.93022-4.8393,5.9858-10.77442,.01682-1.79632-.39682-2.65871,0-4.78863,.51906-2.78608,2.11399-6.0725,3.59148-5.98579,.87582,.0514,1.73155,1.28933,1.79574,2.39432,.08998,1.54866-1.41414,2.15875-1.19716,2.9929,.41328,1.58882,6.73065,2.68366,8.97869,0,1.76242-2.10395,.40897-5.79642,1.19716-5.98579,.58099-.13959,1.20547,1.8934,3.59147,4.19006,.89895,.86528,2.23588,2.15215,2.99289,1.79574,1.09393-.51504,.29779-4.14186,.59858-4.19005,.24907-.03991,.40632,2.50945,1.79574,4.78863,1.78505,2.92817,5.46609,5.18433,7.18295,4.19006,1.0519-.60917,1.13445-2.30414,1.19716-3.59147,.13211-2.71206,4.07116-8.95163,3.05054-11.85249-2.07729-5.90413-5.63171-1.74055-7.24059-3.71057-2.17805-2.66696-4.13096-1.23198-7.78153-4.19006-3.56625-2.88975-3.59834-5.79541-5.98579-5.98579-2.15012-.17146-2.91391,2.12227-5.38721,1.79574-2.09519-.27662-2.55172-2.05529-4.19005-1.79574-1.49996,.23762-1.59836,1.80471-3.59148,2.39431-1.27246,.37642-1.55225-.16768-2.9929,0-2.99766,.3489-5.01022,3.0799-5.38721,3.59147-1.45334,1.97216-.88888,2.80343-2.39432,4.78863-1.29823,1.71197-4.17655,.98618-5.2584,1.84136-3.53501,2.79437-5.05257,7.94601-5.08122,13.81704-.02004,4.10636,.51613,6.18089,1.71261,11.36357,.90854,3.9354,5.11241,9.01992,7.42984,11.28709,.62205,.60857,2.36593,2.31462,3.59147,1.79574,1.16134-.49169,1.19573-2.7012,1.19716-2.9929,.00488-1.00333-.26277-2.24472-2.39431-5.38721-2.23904-3.30096-3.12818-3.67745-2.99289-4.78863,.23915-1.96417,3.37969-3.76359,4.78863-2.99289Z" fill="#2f2e41"/><g><path d="M38.44484,309.39634c-.77128,6.44008,1.92573,12.05864,6.02397,12.54945,4.09823,.49081,8.04572-4.33198,8.817-10.77207,.33761-2.81904,.01053-5.48059-.80761-7.62363l2.92577-27.32945-12.85422-1.09986-1.51992,27.05823c-1.30105,1.88924-2.24738,4.39829-2.58499,7.21733Z" fill="#ffb6b6"/><path d="M75.45757,127.90164s-6.6597,.09242-11.07222,8.70288c-2.34477,4.57552-17.58599,86.58475-17.58599,86.58475l-4.28181,25.93722,2.20056,4.2898c-3.49813,5.35033-4.46115,11.97018-2.63244,18.09544h0l-4.18343,25.34131,19.6717,.1059,15.35181-66.38482,12.90824-38.50054-10.37642-64.17193Z" fill="#e6e6e6"/></g><g><path d="M175.95924,308.39634c.77128,6.44008-1.92573,12.05864-6.02397,12.54945-4.09823,.49081-8.04572-4.33198-8.817-10.77207-.33761-2.81904-.01053-5.48059,.80761-7.62363l-2.92577-27.32945,12.85422-1.09986,1.51992,27.05823c1.30105,1.88924,2.24738,4.39829,2.58499,7.21733Z" fill="#ffb6b6"/><path d="M138.94651,126.90164s6.6597,.09242,11.07222,8.70288c2.34477,4.57552,17.58599,86.58475,17.58599,86.58475l4.28181,25.93722-2.20056,4.2898c3.49813,5.35033,4.46115,11.97018,2.63244,18.09544h0l4.18343,25.34131-19.6717,.1059-15.35181-66.38482-12.90824-38.50054,10.37642-64.17193Z" fill="#e6e6e6"/></g><path d="M740.8246,91.86717c.81646,1.33737,5.15087-3.55544,11.80673-4.09503,1.69499-.14077,5.51504,6.3474,9.89715,6.44127,2.90418,.05864,4.69215,.03516,8.26815,0,4.22706-.04697,5.38459-.14077,6.20111-1.17312,1.58125-2.00606,.27901-5.57231,1.03352-5.86559,.63043-.24638,2.26341,1.95909,3.10056,4.69247,1.75699,5.73656-4.54751,13.72549-5.16759,21.11612-.66147,7.96545,5.84969-7.29683,5.16759,0-.76479,8.21183-3.50364,7.59004-3.47261,10.55806,.01028,.44579,.12402,.83287,.37205,1.17312,.217,.30502,.43406,.42231,4.13407,1.17312,4.42343,.90325,6.64552,1.34904,7.23463,1.17312,1.51924-.44579,3.05924-2.92105,4.13407-4.69247,1.77768-2.89764,.51676,.02341,0-3.51935-.49613-3.42556-2.04641-3.87127-2.06704-7.03871-.02069-3.98863,2.42874-5.1969,4.13407-9.38494,3.15222-7.74262,.07235-16.70519-1.03352-19.94301-.53111-1.55273-1.49448-3.51793-3.18282-6.76486-1.3554-2.60663-3.1543-4.90283-5.34821-6.62332-3.2882-2.57864-7.10735-4.34553-11.2368-5.04562-2.26186-.38347-4.56791-.18209-6.79157,.42436l-5.76014,1.57094c-2.42119,.66031-4.70358,1.85709-6.71607,3.52159h0c-1.87576,.00708-3.50231,1.3832-4.14547,3.38327-.06731,.20931-.12855,.33123-.17896,.31334-10.38291-3.684-10.37593,7.22737-10.26209,14.04358,.01165,.69764-.0104,1.31503-.08986,1.81653v.03523c-.20672,1.34904-.25838,2.33449-.03097,2.7099Z" fill="#2f2e41"/><rect x="496.54845" y="152.12787" width="109.30713" height="2" fill="#3f3d56"/><path d="M627.85558,166.09857c-7.71973,0-14-6.28027-14-14s6.28027-14,14-14,14,6.28027,14,14-6.28027,14-14,14Zm0-26c-6.6167,0-12,5.3833-12,12s5.3833,12,12,12,12-5.3833,12-12-5.3833-12-12-12Z" fill="#3f3d56"/><circle cx="627.85558" cy="152.09857" r="7" fill="#6c63ff"/><rect x="246.85558" y="226.12787" width="109.30713" height="2" fill="#3f3d56"/><path d="M210.85558,226.09857c0-7.71973,6.28027-14,14-14s14,6.28027,14,14-6.28027,14-14,14-14-6.28027-14-14Zm2,0c0,6.6167,5.3833,12,12,12s12-5.3833,12-12c0-6.6167-5.3833-12-12-12s-12,5.3833-12,12Z" fill="#3f3d56"/><circle cx="224.85558" cy="226.09857" r="7" fill="#6c63ff"/></svg>